# Blender v2.80 (sub 75) OBJ File: 'room.blend'
# www.blender.org
o Floor_Plane
v -10.000000 0.000000 10.000000
v 10.000000 0.000000 10.000000
v -10.000000 0.000000 -10.000000
v 10.000000 0.000000 -10.000000
vt 0.988188 0.554365
vt 0.659096 0.993700
vt 0.659096 0.554365
vt 0.988188 0.993700
vn 0.0000 1.0000 0.0000
s off
f 2/1/1 3/2/1 1/3/1
f 2/1/1 4/4/1 3/2/1
o Wall_1_Plane.001
v -10.000000 0.000000 -10.000000
v 10.000000 0.000000 -10.000000
v -10.000000 20.000000 -10.000000
v 10.000000 20.000000 -10.000000
vt 0.996063 0.004725
vt 0.406324 0.540129
vt 0.406324 0.004725
vt 0.996063 0.540129
vn 0.0000 0.0000 1.0000
s off
f 6/5/2 7/6/2 5/7/2
f 6/5/2 8/8/2 7/6/2
o Wall_2_Plane.002
v 10.000000 0.000000 9.999997
v -10.000000 0.000000 10.000004
v 10.000000 20.000000 9.999996
v -10.000000 20.000000 10.000003
vt 0.998425 0.004725
vt 0.411049 0.536979
vt 0.411049 0.004725
vt 0.998425 0.536979
vn -0.0000 -0.0000 -1.0000
s off
f 10/9/3 11/10/3 9/11/3
f 10/9/3 12/12/3 11/10/3
o Wall_3_Plane.003
v -9.999997 0.000000 10.000000
v -10.000003 0.000000 -10.000000
v -9.999997 20.000000 10.000000
v -10.000003 20.000000 -10.000000
vt 0.996850 0.006300
vt 0.407112 0.540129
vt 0.407112 0.006300
vt 0.996850 0.540129
vn 1.0000 0.0000 -0.0000
s off
f 14/13/4 15/14/4 13/15/4
f 14/13/4 16/16/4 15/14/4
o Wall_4_Plane.004
v 9.999995 0.000000 -10.000000
v 10.000006 0.000000 10.000000
v 9.999994 20.000000 -10.000000
v 10.000005 20.000000 10.000000
vt 0.997638 0.003150
vt 0.414199 0.536979
vt 0.414199 0.003150
vt 0.997638 0.536979
vn -1.0000 0.0000 0.0000
s off
f 18/17/5 19/18/5 17/19/5
f 18/17/5 20/20/5 19/18/5
o Roof_Plane.005
v -10.000000 20.000004 -10.000000
v 10.000000 20.000004 -10.000000
v -10.000000 19.999996 10.000000
v 10.000000 19.999996 10.000000
vt 0.384539 0.004725
vt 0.006900 0.540129
vt 0.006900 0.004725
vt 0.384539 0.540129
vn 0.0000 -1.0000 -0.0000
s off
f 22/21/6 23/22/6 21/23/6
f 22/21/6 24/24/6 23/22/6
